<?xml version="1.0" encoding="utf-8"?>
<svg version="1.1" xmlns:xlink="http://www.w3.org/1999/xlink" width="30px" height="30px" xmlns="http://www.w3.org/2000/svg">
  <defs>
    <filter x="194px" y="825px" width="30px" height="30px" filterUnits="userSpaceOnUse" id="filter1">
      <feOffset dx="1" dy="1" in="SourceAlpha" result="shadowOffsetInner" />
      <feGaussianBlur stdDeviation="2.5" in="shadowOffsetInner" result="shadowGaussian" />
      <feComposite in2="shadowGaussian" operator="atop" in="SourceAlpha" result="shadowComposite" />
      <feColorMatrix type="matrix" values="0 0 0 0 0  0 0 0 0 0  0 0 0 0 0  0 0 0 0.698039215686274 0  " in="shadowComposite" />
    </filter>
    <g id="widget2">
      <path d="M 208 829  C 213.6 829  218 833.4  218 839  C 218 844.6  213.6 849  208 849  C 202.4 849  198 844.6  198 839  C 198 833.4  202.4 829  208 829  Z " fill-rule="nonzero" fill="#009dd9" stroke="none" />
      <path d="M 208 829.5  C 213.32 829.5  217.5 833.68  217.5 839  C 217.5 844.32  213.32 848.5  208 848.5  C 202.68 848.5  198.5 844.32  198.5 839  C 198.5 833.68  202.68 829.5  208 829.5  Z " stroke-width="1" stroke="#ffffff" fill="none" />
    </g>
  </defs>
  <g transform="matrix(1 0 0 1 -194 -825 )">
    <use xlink:href="#widget2" filter="url(#filter1)" />
    <use xlink:href="#widget2" />
  </g>
</svg>